<?xml version="1.0" encoding="utf-8"?>
<svg viewBox="-6 41.935 512 416.13" xmlns="http://www.w3.org/2000/svg">
  <path style="fill: rgb(151, 151, 151);" d="M 775.002 423.932 L 775.002 458.065 C 732.074 458.065 673.171 419.779 610.934 419.779 C 574.263 419.779 551.28 434.911 537.468 450.033 L 519.002 450.033 L 496.246 344.015 L 775.002 423.932 Z" transform="matrix(1, 0, 0, 1, -269.002014, 0.000008)"/>
  <path style="fill: rgb(202, 202, 202);" d="M 519.002 344.015 L 519.002 450.033 L 500.536 450.033 C 486.723 434.912 463.74 419.779 427.07 419.779 C 364.834 419.779 305.931 458.065 263.002 458.065 L 263.002 423.932 L 519.002 344.015 Z" transform="matrix(1, 0, 0, 1, -269.002014, 0.000008)"/>
  <path style="fill: rgb(202, 202, 202);" d="M 775.002 80.221 L 775.002 423.932 C 732.074 423.932 673.171 385.646 610.934 385.646 C 574.263 385.646 551.28 400.778 537.468 415.9 L 519.002 415.9 L 473.491 259.177 L 519.002 102.453 C 519.002 102.453 537.593 41.935 610.934 41.935 C 673.171 41.935 732.074 80.221 775.002 80.221 Z" transform="matrix(1, 0, 0, 1, -269.002014, 0.000008)"/>
  <path style="fill: rgb(248, 248, 248);" d="M 519.002 102.453 L 519.002 415.899 L 500.536 415.899 C 486.723 400.767 463.74 385.645 427.07 385.645 C 364.834 385.645 305.931 423.931 263.002 423.931 L 263.002 80.221 C 305.93 80.221 364.833 41.935 427.07 41.935 C 500.411 41.935 519.002 102.453 519.002 102.453 Z" transform="matrix(1, 0, 0, 1, -269.002014, 0.000008)"/>
  <path style="fill: rgb(202, 202, 202);" d="M211.069,173.975c-8.882,0-15.673,6.792-15.673,15.673V281.6c0,8.882,6.792,15.673,15.673,15.673 s15.673-6.792,15.673-15.673v-91.951C226.743,180.767,219.951,173.975,211.069,173.975z" transform="matrix(0.897018, 0, 0, 0.897018, 36.941162, 22.013569)"/>
  <path style="fill: rgb(202, 202, 202);" d="M162.482,125.388c-8.882,0-15.673,6.792-15.673,15.673v189.127c0,8.882,6.792,15.673,15.673,15.673 s15.673-6.792,15.673-15.673V141.061C178.155,132.18,171.363,125.388,162.482,125.388z" transform="matrix(0.897018, 0, 0, 0.897018, 36.941162, 22.013569)"/>
  <path style="fill: rgb(202, 202, 202);" d="M113.371,79.935c-8.882,0-15.673,6.792-15.673,15.673v280.033c0,8.882,6.792,15.673,15.673,15.673 s15.673-6.792,15.673-15.673V95.608C129.045,86.727,122.253,79.935,113.371,79.935z" transform="matrix(0.897018, 0, 0, 0.897018, 36.941162, 22.013569)"/>
  <path style="fill: rgb(202, 202, 202);" d="M64.784,125.388c-8.882,0-15.673,6.792-15.673,15.673v189.127c0,8.882,6.792,15.673,15.673,15.673 s15.673-6.792,15.673-15.673V141.061C80.457,132.18,73.665,125.388,64.784,125.388z" transform="matrix(0.897018, 0, 0, 0.897018, 36.941162, 22.013569)"/>
  <path style="fill: rgb(202, 202, 202);" d="M15.673,170.841C6.792,170.841,0,177.633,0,186.514v98.22c0,8.882,6.792,15.673,15.673,15.673 s15.673-6.792,15.673-15.673v-98.22C31.347,177.633,24.555,170.841,15.673,170.841z" transform="matrix(0.897018, 0, 0, 0.897018, 36.941162, 22.013569)"/>
  <path style="fill: rgb(151, 151, 151);" d="M357.878,79.935c-8.882,0-15.673,6.792-15.673,15.673v280.033c0,8.882,6.792,15.673,15.673,15.673 c8.882,0,15.673-6.792,15.673-15.673V95.608C373.551,86.727,366.759,79.935,357.878,79.935z" transform="matrix(0.897018, 0, 0, 0.897018, 36.941162, 22.013569)"/>
  <path style="fill: rgb(151, 151, 151);" d="M308.767,125.388c-8.882,0-15.673,6.792-15.673,15.673v189.127c0,8.882,6.792,15.673,15.673,15.673 s15.673-6.792,15.673-15.673V141.061C324.441,132.18,317.649,125.388,308.767,125.388z" transform="matrix(0.897018, 0, 0, 0.897018, 36.941162, 22.013569)"/>
  <path style="fill: rgb(151, 151, 151);" d="M260.18,149.943c-8.882,0-15.673,6.792-15.673,15.673v140.016c0,8.882,6.792,15.673,15.673,15.673 c8.882,0,15.673-6.792,15.673-15.673V165.616C275.853,156.735,269.061,149.943,260.18,149.943z" transform="matrix(0.897018, 0, 0, 0.897018, 36.941162, 22.013569)"/>
  <path style="fill: rgb(151, 151, 151);" d="M406.465,125.388c-8.882,0-15.673,6.792-15.673,15.673v189.127c0,8.882,6.792,15.673,15.673,15.673 c8.882,0,15.673-6.792,15.673-15.673V141.061C422.139,132.18,415.347,125.388,406.465,125.388z" transform="matrix(0.897018, 0, 0, 0.897018, 36.941162, 22.013569)"/>
  <path style="fill: rgb(151, 151, 151);" d="M455.576,170.841c-8.882,0-15.673,6.792-15.673,15.673v98.22c0,8.882,6.792,15.673,15.673,15.673 s15.673-6.792,15.673-15.673v-98.22C471.249,177.633,464.457,170.841,455.576,170.841z" transform="matrix(0.897018, 0, 0, 0.897018, 36.941162, 22.013569)"/>
</svg>